<svg width="34" height="34" viewBox="0 0 34 34" fill="none" xmlns="http://www.w3.org/2000/svg">
<path d="M34 17C34 26.3888 26.3888 34 17 34C7.61116 34 0 26.3888 0 17C0 7.61116 7.61116 0 17 0C26.3888 0 34 7.61116 34 17Z" fill="#C4C4C4"/>
<path d="M23.6 19.1365C23.5989 19.249 23.5519 19.3612 23.4588 19.4489L23.4587 19.449C23.2574 19.639 22.9216 19.6389 22.7204 19.449L22.7204 19.449L17.7744 14.7826L17.4999 14.5236L17.2254 14.7826L12.2797 19.4488C12.2797 19.4488 12.2796 19.4489 12.2796 19.4489C12.0781 19.6389 11.7424 19.6388 11.5412 19.4489L11.5411 19.4488C11.4483 19.3613 11.4013 19.2494 11.4 19.1372C11.4011 19.0247 11.4481 18.9124 11.5412 18.8246L11.5412 18.8246L17.1308 13.551C17.2292 13.4582 17.3616 13.4085 17.4999 13.4085C17.6382 13.4085 17.7708 13.4583 17.8691 13.551L23.4587 18.8247L23.4588 18.8248C23.5516 18.9124 23.5987 19.0243 23.6 19.1365Z" fill="white" stroke="white" stroke-width="0.8"/>
</svg>
